<mxfile host="app.diagrams.net" modified="2021-11-09T02:50:03.761Z" agent="5.0 (Macintosh; Intel Mac OS X 10_15_7) AppleWebKit/537.36 (KHTML, like Gecko) Chrome/95.0.4638.69 Safari/537.36" etag="O3jIj4pVhdN9EM2K_IkH" version="15.7.0" type="github">
  <diagram id="sfdjoZge89mFO04S9I_9" name="Page-1">
    <mxGraphModel dx="2066" dy="1129" grid="0" gridSize="10" guides="1" tooltips="1" connect="1" arrows="1" fold="1" page="1" pageScale="1" pageWidth="827" pageHeight="1169" math="0" shadow="0">
      <root>
        <mxCell id="0" />
        <mxCell id="1" parent="0" />
        <mxCell id="f9yjvmtbCaJM59H13zJD-10" style="edgeStyle=orthogonalEdgeStyle;rounded=0;orthogonalLoop=1;jettySize=auto;html=1;exitX=1;exitY=0.5;exitDx=0;exitDy=0;" edge="1" parent="1" source="f9yjvmtbCaJM59H13zJD-1" target="f9yjvmtbCaJM59H13zJD-4">
          <mxGeometry relative="1" as="geometry" />
        </mxCell>
        <mxCell id="f9yjvmtbCaJM59H13zJD-1" value="Program 1" style="rounded=1;whiteSpace=wrap;html=1;" vertex="1" parent="1">
          <mxGeometry x="90" y="310" width="120" height="60" as="geometry" />
        </mxCell>
        <mxCell id="f9yjvmtbCaJM59H13zJD-6" style="edgeStyle=orthogonalEdgeStyle;rounded=0;orthogonalLoop=1;jettySize=auto;html=1;exitX=1;exitY=0.5;exitDx=0;exitDy=0;entryX=0;entryY=0.5;entryDx=0;entryDy=0;entryPerimeter=0;" edge="1" parent="1" source="f9yjvmtbCaJM59H13zJD-2" target="f9yjvmtbCaJM59H13zJD-4">
          <mxGeometry relative="1" as="geometry" />
        </mxCell>
        <mxCell id="f9yjvmtbCaJM59H13zJD-2" value="Program 2" style="rounded=1;whiteSpace=wrap;html=1;" vertex="1" parent="1">
          <mxGeometry x="90" y="410" width="120" height="60" as="geometry" />
        </mxCell>
        <mxCell id="f9yjvmtbCaJM59H13zJD-9" style="edgeStyle=orthogonalEdgeStyle;rounded=0;orthogonalLoop=1;jettySize=auto;html=1;exitX=1;exitY=0.5;exitDx=0;exitDy=0;entryX=0;entryY=0.5;entryDx=0;entryDy=0;entryPerimeter=0;" edge="1" parent="1" source="f9yjvmtbCaJM59H13zJD-3" target="f9yjvmtbCaJM59H13zJD-4">
          <mxGeometry relative="1" as="geometry" />
        </mxCell>
        <mxCell id="f9yjvmtbCaJM59H13zJD-3" value="Program 3" style="rounded=1;whiteSpace=wrap;html=1;" vertex="1" parent="1">
          <mxGeometry x="90" y="510" width="120" height="60" as="geometry" />
        </mxCell>
        <mxCell id="f9yjvmtbCaJM59H13zJD-4" value="File" style="shape=cylinder3;whiteSpace=wrap;html=1;boundedLbl=1;backgroundOutline=1;size=15;" vertex="1" parent="1">
          <mxGeometry x="380" y="310" width="120" height="250" as="geometry" />
        </mxCell>
      </root>
    </mxGraphModel>
  </diagram>
</mxfile>
